<?xml version="1.0" encoding="utf-8"?>
<!-- Generator: Adobe Illustrator 24.2.1, SVG Export Plug-In . SVG Version: 6.00 Build 0)  -->
<svg version="1.1" id="Слой_1" xmlns="http://www.w3.org/2000/svg" xmlns:xlink="http://www.w3.org/1999/xlink" x="0px" y="0px"
	 viewBox="0 0 1000 1000" style="enable-background:new 0 0 1000 1000;" xml:space="preserve">
<style type="text/css">
	.st0{fill:#5E548E;}
	.st1{fill:#231942;}
	.st2{fill:#E3DCB8;}
	.st3{fill:#C7A6CD;}
</style>
<path class="st0" d="M735.19,569.98c54.55,4.11,123.89,0.6,206.55-25c1.49-14.79,2.26-29.8,2.26-44.99c0-245.21-198.79-444-444-444
	S56,254.79,56,500c0,9.52,0.34,18.97,0.93,28.35c56.32-41.54,126.9-77.31,210.17-84.56C444.31,428.35,532.89,554.74,735.19,569.98z"
	/>
<path class="st1" d="M735.19,569.98c-202.31-15.25-290.89-141.64-468.09-126.2c-83.27,7.25-153.85,43.02-210.17,84.56
	C71.55,760.35,264.31,944,500,944c230.03,0,419.19-174.93,441.74-399.01C859.09,570.58,789.75,574.1,735.19,569.98z"/>
<g>
	<g>
		<path class="st2" d="M297.49,659.95l35.18-4.89L498.47,226.7h55.05L716.4,655.06l34.85,4.89v41.04H615.09v-41.04l35.83-6.19
			l-31.27-87.3H429.74l-32.25,87.3l35.83,6.19v41.04H297.49V659.95z M449.61,512.71h150.5l-73.62-203.59h-1.95L449.61,512.71z"/>
	</g>
</g>
<g>
	<g>
		<path class="st3" d="M245.14,659.95l35.18-4.89L446.12,226.7h55.05l162.88,428.36l34.85,4.89v41.04H562.74v-41.04l35.83-6.19
			l-31.27-87.3H377.39l-32.25,87.3l35.83,6.19v41.04H245.14V659.95z M397.26,512.71h150.5l-73.62-203.59h-1.95L397.26,512.71z"/>
	</g>
</g>
</svg>
